<svg  fill="#000000" xmlns="http://www.w3.org/2000/svg" xmlns:xlink="http://www.w3.org/1999/xlink" version="1.1" x="0px" y="0px" viewBox="0 0 100 100" enable-background="new 0 0 100 100" xml:space="preserve"><g><path d="M5.352,84.397c12.389,0,22.431-10.429,22.431-23.293c0-3.954,0.952-7.676,2.626-10.938   c3.772-7.351,11.225-12.355,19.805-12.355c8.582,0,16.034,5.004,19.806,12.355c1.675,3.262,2.626,6.985,2.626,10.938   c0,12.865,10.042,23.293,22.431,23.293c0.029,0,0.056-0.002,0.085-0.002V62.518c-0.029,0-0.056,0.002-0.085,0.002   c-8.58,0-16.032-5.005-19.804-12.355c-1.674-3.262-2.626-6.985-2.626-10.938c0-12.865-10.042-23.294-22.432-23.294   c-12.389,0-22.432,10.43-22.432,23.294c0,3.954-0.952,7.676-2.626,10.938C21.385,57.515,13.933,62.52,5.352,62.52   c-0.009,0-0.018-0.001-0.027-0.001v21.877C5.334,84.396,5.343,84.397,5.352,84.397z"></path><g><path d="M49.994,82.628c8.593,0,16.056,5.012,19.833,12.373h5.259c-1.676-3.266-2.63-6.994-2.63-10.954    c0-12.882-10.056-23.326-22.463-23.326S27.532,71.164,27.532,84.046c0,3.96-0.954,7.688-2.63,10.954h5.26    C33.939,87.64,41.401,82.628,49.994,82.628z"></path><path d="M69.828,5.038c1.676,3.267,2.629,6.995,2.629,10.955c0,12.882,10.057,23.325,22.462,23.325    c0.029,0,0.056-0.001,0.085-0.001V17.408c-0.029,0-0.056,0.002-0.085,0.002c-8.592,0-16.055-5.013-19.832-12.373v0L69.828,5.038    L69.828,5.038z"></path><path d="M27.532,15.992c0-3.96,0.953-7.688,2.629-10.955v0h-5.26v0c-3.778,7.36-11.239,12.373-19.832,12.373    c-0.009,0-0.019-0.001-0.028-0.001v21.907c0.009,0,0.019,0,0.028,0C17.475,39.317,27.532,28.875,27.532,15.992z"></path></g></g></svg>